<svg xmlns="http://www.w3.org/2000/svg" viewBox="0 0 960 24" width="960" height="24" role="img" aria-label="" shape-rendering="crispEdges"><style>.m{font-family:ui-monospace,SFMono-Regular,Menlo,Consolas,'Liberation Mono',monospace}@media (prefers-reduced-motion:reduce){*{animation:none!important}}</style><defs><pattern id="sl" width="4" height="4" patternUnits="userSpaceOnUse"><rect width="4" height="2" fill="#000" opacity=".16"/></pattern></defs><g><rect x="0" y="10" width="16" height="4" fill="#5f574f"/><rect x="32" y="10" width="16" height="4" fill="#5f574f"/><rect x="64" y="10" width="16" height="4" fill="#5f574f"/><rect x="96" y="10" width="16" height="4" fill="#5f574f"/><rect x="128" y="10" width="16" height="4" fill="#5f574f"/><rect x="160" y="10" width="16" height="4" fill="#5f574f"/><rect x="192" y="10" width="16" height="4" fill="#5f574f"/><rect x="224" y="10" width="16" height="4" fill="#5f574f"/><rect x="256" y="10" width="16" height="4" fill="#5f574f"/><rect x="288" y="10" width="16" height="4" fill="#5f574f"/><rect x="320" y="10" width="16" height="4" fill="#5f574f"/><rect x="352" y="10" width="16" height="4" fill="#5f574f"/><rect x="384" y="10" width="16" height="4" fill="#5f574f"/><rect x="416" y="10" width="16" height="4" fill="#5f574f"/><rect x="448" y="10" width="16" height="4" fill="#5f574f"/><rect x="480" y="10" width="16" height="4" fill="#5f574f"/><rect x="512" y="10" width="16" height="4" fill="#5f574f"/><rect x="544" y="10" width="16" height="4" fill="#5f574f"/><rect x="576" y="10" width="16" height="4" fill="#5f574f"/><rect x="608" y="10" width="16" height="4" fill="#5f574f"/><rect x="640" y="10" width="16" height="4" fill="#5f574f"/><rect x="672" y="10" width="16" height="4" fill="#5f574f"/><rect x="704" y="10" width="16" height="4" fill="#5f574f"/><rect x="736" y="10" width="16" height="4" fill="#5f574f"/><rect x="768" y="10" width="16" height="4" fill="#5f574f"/><rect x="800" y="10" width="16" height="4" fill="#5f574f"/><rect x="832" y="10" width="16" height="4" fill="#5f574f"/><rect x="864" y="10" width="16" height="4" fill="#5f574f"/><rect x="896" y="10" width="16" height="4" fill="#5f574f"/><rect x="928" y="10" width="16" height="4" fill="#5f574f"/><rect x="960" y="10" width="16" height="4" fill="#5f574f"/><rect x="992" y="10" width="16" height="4" fill="#5f574f"/><animateTransform attributeName="transform" type="translate" values="0 0;-32 0" dur=".9s" repeatCount="indefinite"/></g><rect y="0" width="8" height="8" fill="#ffec27"><animate attributeName="x" values="-8;960" dur="9s" repeatCount="indefinite"/></rect><rect width="960" height="24" fill="url(#sl)" pointer-events="none"/></svg>